# xmcd
# 
# Track frame offsets:
#   150
#   18855
#   40435
#   56820
#   73067
#   90050
#   107240
#   120400
#   132232
#   147120
#   160510
#   177357
#   192730
#   210517
# 
# Disc length: 3052 seconds
# 
# Revision: 2
# Processed by: cddbd v1.5.1PL2 Copyright (c) Steve Scherf et al.
# Submitted via: Synapstar 1.0 
# 
DISCID=bf0bea0e
DTITLE=Various Artist - SD050
DYEAR=1900
DGENRE=Country
TTITLE0=Reba McEntire and Brooks and Dunn - If You See Him, If You See Her - Duet
TTITLE1=Tim McGraw - One Of These Days
TTITLE2=George Strait - I Just Want To Dance With You
TTITLE3=Clint Black - Shoes You're Wearing, The
TTITLE4=Terri Clark - Now Taht I Found You
TTITLE5=Bryan White - Bad Day T O Let You Go
TTITLE6=Dixie Chicks - There's Your Trouble
TTITLE7=Wade Hayes - When The Wrong One Loves You Right
TTITLE8=Neal McCoy - Party On
TTITLE9=Lee Ann Womack - Buckaroo
TTITLE10=Hal Ketchum - I Saw The Light
TTITLE11=Lorrie Morgan - I'm Not That Easy To Forget
TTITLE12=Chely Wright - I Already Do
TTITLE13=Anita Cochran - Will You Be Here
EXTD=MediaType: Karaoke CD+G Producer: StarDisc
EXTT0=
EXTT1=
EXTT2=
EXTT3=
EXTT4=
EXTT5=
EXTT6=
EXTT7=
EXTT8=
EXTT9=
EXTT10=
EXTT11=
EXTT12=
EXTT13=
PLAYORDER=
